<svg version="1.1" xmlns="http://www.w3.org/2000/svg" viewBox="0 0 789.1015625 593.4438920454545" width="1578.203125" height="1186.887784090909">
  <!-- svg-source:excalidraw -->
  
  <defs>
    <style class="style-fonts">
      @font-face {
        font-family: "Virgil";
        src: url("https://excalidraw.com/Virgil.woff2");
      }
      @font-face {
        font-family: "Cascadia";
        src: url("https://excalidraw.com/Cascadia.woff2");
      }
    </style>
    
  </defs>
  <rect x="0" y="0" width="789.1015625" height="593.4438920454545" fill="#ffffff"></rect><g stroke-linecap="round" transform="translate(10 10) rotate(0 384.55078125 286.72194602272725)"><path d="M32 0 M32 0 C314.65 2.48, 595.61 2.46, 737.1 0 M32 0 C238.11 2.11, 444.39 2.32, 737.1 0 M737.1 0 C758.5 1.8, 769.93 11.9, 769.1 32 M737.1 0 C758.47 -2.08, 766.81 12.25, 769.1 32 M769.1 32 C770.01 229.25, 771.26 427.5, 769.1 541.44 M769.1 32 C769.93 220.63, 769.97 408.92, 769.1 541.44 M769.1 541.44 C769.85 562.74, 756.87 573.29, 737.1 573.44 M769.1 541.44 C767.09 564.54, 760.17 573.05, 737.1 573.44 M737.1 573.44 C493.2 573.42, 250.48 574.44, 32 573.44 M737.1 573.44 C561.2 575.62, 385.22 576.04, 32 573.44 M32 573.44 C9.66 573.1, 1.47 561.42, 0 541.44 M32 573.44 C11.07 571.28, -0.59 560.55, 0 541.44 M0 541.44 C1.52 368.02, 0.17 196.44, 0 32 M0 541.44 C-1.78 355.55, -1.43 169.65, 0 32 M0 32 C0.86 11.61, 10.95 -0.91, 32 0 M0 32 C0.15 9.06, 8.78 -2, 32 0" stroke="#1e1e1e" stroke-width="1" fill="none"></path></g><g stroke-linecap="round"><g transform="translate(106.2954027708384 236.1599608530509) rotate(0 0.11735984468370475 130.10541883764702)"><path d="M0.67 -1.03 C0.81 42.23, 0.66 216.2, 0.62 259.8 M-0.43 1.04 C-0.46 44.48, -0.46 218.32, -0.5 261.25" stroke="#1e1e1e" stroke-width="1" fill="none"></path></g></g><mask></mask><g stroke-linecap="round"><g transform="translate(106.88063004356559 500.9639381257782) rotate(0 295.7191735467789 -1.4783050397956004)"><path d="M-0.31 -0.19 C98.2 -0.17, 492.93 -0.87, 591.75 -0.97 M1.73 -1.33 C99.98 -1.58, 492.15 -2.54, 590.53 -2.77" stroke="#1e1e1e" stroke-width="1" fill="none"></path></g></g><mask></mask><g transform="translate(25.848114013671875 28.436798095703125) rotate(0 372.56781005859375 70)"><text x="372.56781005859375" y="0" font-family="Virgil, Segoe UI Emoji" font-size="28px" fill="#1e1e1e" text-anchor="middle" style="white-space: pre;" direction="ltr" dominant-baseline="text-before-edge">Gender Wage Gap and Life Expectancy at Birth for </text><text x="372.56781005859375" y="35" font-family="Virgil, Segoe UI Emoji" font-size="28px" fill="#1e1e1e" text-anchor="middle" style="white-space: pre;" direction="ltr" dominant-baseline="text-before-edge">Belarus, Indonesia, Mexico, Paraguay, the Philippines, </text><text x="372.56781005859375" y="70" font-family="Virgil, Segoe UI Emoji" font-size="28px" fill="#1e1e1e" text-anchor="middle" style="white-space: pre;" direction="ltr" dominant-baseline="text-before-edge">Singapore, Sri Lanka, Sweden, and the United Kingdom</text><text x="372.56781005859375" y="105" font-family="Virgil, Segoe UI Emoji" font-size="28px" fill="#1e1e1e" text-anchor="middle" style="white-space: pre;" direction="ltr" dominant-baseline="text-before-edge">in 2008  </text></g><g transform="translate(127.84964266690343 518.794034090909) rotate(0 284.6297607421875 12.5)"><text x="284.6297607421875" y="0" font-family="Virgil, Segoe UI Emoji" font-size="20px" fill="#1e1e1e" text-anchor="middle" style="white-space: pre;" direction="ltr" dominant-baseline="text-before-edge">Sorted → from smaller to larger life expectancy at birth</text></g><g transform="translate(-52.01489257812483 342.48686079545445) rotate(270.1197204691977 114.639892578125 12.500000000000028)"><text x="114.639892578125" y="0" font-family="Virgil, Segoe UI Emoji" font-size="20px" fill="#1e1e1e" text-anchor="middle" style="white-space: pre;" direction="ltr" dominant-baseline="text-before-edge">lifie expectancy (years)</text></g><g stroke-linecap="round" transform="translate(129.48437500000006 353.29865056818176) rotate(0 34.23544034090909 71.87020596590912)"><path d="M4.56 3.96 C4.56 3.96, 4.56 3.96, 4.56 3.96 M4.56 3.96 C4.56 3.96, 4.56 3.96, 4.56 3.96 M1.01 14.13 C5.8 9.78, 9.61 5.72, 11.51 2.06 M1.01 14.13 C4.59 9.94, 7.87 6.03, 11.51 2.06 M1.41 19.78 C8.11 14.95, 9.68 7.8, 17.81 0.91 M1.41 19.78 C6.84 12.99, 11.32 7.48, 17.81 0.91 M1.15 26.17 C4.22 21.09, 10.59 13.92, 23.45 0.51 M1.15 26.17 C7.96 18.39, 13.64 12.45, 23.45 0.51 M0.89 32.57 C7 22.83, 16.71 17.07, 28.44 0.87 M0.89 32.57 C10.87 22.28, 19.92 12.79, 28.44 0.87 M1.28 38.21 C9.08 31.66, 14.62 23.28, 34.08 0.48 M1.28 38.21 C13.6 25.05, 25.45 12.13, 34.08 0.48 M1.02 44.61 C17.17 27.05, 30.54 11.41, 39.07 0.84 M1.02 44.61 C9.19 34.88, 16.92 25.22, 39.07 0.84 M1.41 50.25 C17.15 34.23, 30.37 18.38, 44.06 1.2 M1.41 50.25 C10.89 39.62, 20.59 28.35, 44.06 1.2 M1.15 56.65 C15.96 40.99, 29.5 25.19, 49.7 0.8 M1.15 56.65 C14.38 39.67, 28.83 23.94, 49.7 0.8 M0.89 63.05 C21.09 38.84, 44.84 12.14, 55.34 0.41 M0.89 63.05 C14.98 47.72, 28.41 32.34, 55.34 0.41 M1.29 68.69 C23.9 42.61, 45.14 19.53, 59.68 1.52 M1.29 68.69 C19.85 45.71, 41.39 22.45, 59.68 1.52 M1.02 75.09 C19.13 53.86, 35.71 35.31, 63.35 3.39 M1.02 75.09 C17.76 56.68, 34.54 38.8, 63.35 3.39 M0.76 81.49 C19.99 60.78, 38.73 35.7, 65.71 6.77 M0.76 81.49 C25.66 51.89, 51.25 21.05, 65.71 6.77 M1.16 87.13 C22.18 60.45, 44.49 35.7, 68.08 10.15 M1.16 87.13 C14.38 71.97, 28.86 54.72, 68.08 10.15 M0.9 93.53 C18.28 70.25, 38.11 49.37, 68.47 15.79 M0.9 93.53 C24.94 67.54, 47.34 40.28, 68.47 15.79 M1.29 99.17 C30.45 66.93, 56.21 38.19, 70.83 19.17 M1.29 99.17 C21.91 74.14, 44.26 50.52, 70.83 19.17 M1.03 105.57 C21.59 85.72, 37.51 64.21, 70.57 25.57 M1.03 105.57 C22.73 79.68, 44.92 55.66, 70.57 25.57 M0.77 111.97 C24.93 83.64, 52.67 53.71, 70.97 31.21 M0.77 111.97 C23.79 85.17, 46.67 57.93, 70.97 31.21 M1.16 117.61 C23.05 92.4, 41.9 69.47, 70.7 37.61 M1.16 117.61 C19.09 96.62, 38.06 75.41, 70.7 37.61 M0.9 124.01 C19.44 101.05, 38.96 77.55, 71.1 43.26 M0.9 124.01 C20.44 101.61, 41.41 78.33, 71.1 43.26 M1.95 128.9 C15.89 112.7, 30.51 95.69, 70.84 49.65 M1.95 128.9 C18.06 110.92, 34.98 91.7, 70.84 49.65 M1.69 135.3 C27.64 108.33, 52.37 80.96, 70.58 56.05 M1.69 135.3 C25.46 108.79, 48.56 80.78, 70.58 56.05 M4.05 138.67 C22.15 118.89, 40.82 96.92, 70.97 61.69 M4.05 138.67 C22.59 116.11, 42.29 95.3, 70.97 61.69 M7.07 141.3 C31.35 113.07, 53.33 87.78, 70.71 68.09 M7.07 141.3 C25.82 120.11, 46.03 97.72, 70.71 68.09 M10.75 143.17 C32.79 120.22, 49.61 94.44, 71.1 73.73 M10.75 143.17 C30.95 118.53, 52.37 95.61, 71.1 73.73 M14.42 145.04 C29.9 123.97, 51.21 104.73, 70.84 80.13 M14.42 145.04 C32.37 124.55, 50.31 102.68, 70.84 80.13 M20.06 144.64 C38.79 120.98, 57.47 99.75, 70.58 86.53 M20.06 144.64 C40.54 121.14, 60.32 97.84, 70.58 86.53 M25.71 144.25 C39.9 127.22, 55.45 112.4, 70.98 92.17 M25.71 144.25 C35.53 133.27, 44.73 123.46, 70.98 92.17 M30.69 144.61 C43.13 130.65, 56.1 114.1, 70.71 98.57 M30.69 144.61 C41.1 133.87, 50.18 122.59, 70.71 98.57 M36.34 144.21 C47.97 130.81, 57.62 118.33, 71.11 104.21 M36.34 144.21 C47.53 130, 58.8 117.68, 71.11 104.21 M41.32 144.57 C50.49 131.8, 63.04 118.02, 70.85 110.61 M41.32 144.57 C51.81 132.36, 61.87 121.42, 70.85 110.61 M46.97 144.18 C57.06 133.14, 65.91 123.77, 70.59 117.01 M46.97 144.18 C53.12 136.2, 59.12 129.41, 70.59 117.01 M52.61 143.78 C58.24 136.92, 60.74 132.29, 70.98 122.65 M52.61 143.78 C57.14 139.04, 59.97 135.27, 70.98 122.65 M58.91 142.64 C60.77 139.53, 64.48 136.53, 70.72 129.05 M58.91 142.64 C63.13 136.93, 68.86 131.58, 70.72 129.05" stroke="#a5d8ff" stroke-width="0.5" fill="none"></path><path d="M17.12 0 M17.12 0 C28.3 1.16, 38.85 1.84, 51.35 0 M17.12 0 C25.75 -0.26, 34.93 -0.61, 51.35 0 M51.35 0 C62.57 1.15, 67.62 4.81, 68.47 17.12 M51.35 0 C63.28 -0.38, 68.65 5.51, 68.47 17.12 M68.47 17.12 C68.9 55.68, 66.95 90.79, 68.47 126.62 M68.47 17.12 C69.7 52.83, 69.4 87.81, 68.47 126.62 M68.47 126.62 C67.98 136.48, 63.21 142.01, 51.35 143.74 M68.47 126.62 C66.49 138.72, 60.55 144.21, 51.35 143.74 M51.35 143.74 C42.55 143.24, 33.57 141.81, 17.12 143.74 M51.35 143.74 C40.43 143.41, 29.69 143.68, 17.12 143.74 M17.12 143.74 C5.04 144.33, -0.33 137.57, 0 126.62 M17.12 143.74 C7.77 141.99, 0.96 137.96, 0 126.62 M0 126.62 C0.08 91.41, -0.95 53.48, 0 17.12 M0 126.62 C0.14 96.13, 1.92 67.03, 0 17.12 M0 17.12 C-0.17 3.79, 5.63 -1.29, 17.12 0 M0 17.12 C-1.75 7.53, 5.83 0.38, 17.12 0" stroke="#1e1e1e" stroke-width="1" fill="none"></path></g><g transform="translate(147.9098254117099 412.6688565340909) rotate(0 15.809989929199219 12.5)"><text x="15.809989929199219" y="0" font-family="Virgil, Segoe UI Emoji" font-size="20px" fill="#1e1e1e" text-anchor="middle" style="white-space: pre;" direction="ltr" dominant-baseline="text-before-edge">Ind</text></g><g stroke-linecap="round" transform="translate(209.06143465909093 338.7587002840909) rotate(0 34.105823863636346 79.48384232954555)"><path d="M4.54 3.95 C4.54 3.95, 4.54 3.95, 4.54 3.95 M4.54 3.95 C4.54 3.95, 4.54 3.95, 4.54 3.95 M1 14.12 C3.84 12.72, 6.9 9.66, 10.84 2.8 M1 14.12 C3.51 12.42, 4.8 9.81, 10.84 2.8 M1.39 19.76 C4.54 15.1, 7.12 10.8, 17.79 0.89 M1.39 19.76 C6.19 14.11, 11.72 9.98, 17.79 0.89 M1.13 26.16 C10.47 16.77, 14.65 8.6, 23.44 0.5 M1.13 26.16 C7.99 19.1, 12.9 12.2, 23.44 0.5 M0.87 32.56 C8.52 25.81, 12.37 17.79, 28.42 0.86 M0.87 32.56 C11.69 21.81, 22.54 9.19, 28.42 0.86 M1.26 38.2 C11.83 25.9, 19.24 14.63, 33.41 1.22 M1.26 38.2 C10.04 28.71, 17.33 20.12, 33.41 1.22 M1 44.6 C15.63 30.22, 26.06 16.7, 39.05 0.82 M1 44.6 C13.58 30.52, 24.62 16.72, 39.05 0.82 M1.4 50.24 C17.63 33.81, 29.3 14.42, 44.04 1.18 M1.4 50.24 C16.77 34, 31.85 16.03, 44.04 1.18 M1.14 56.64 C13.54 43.58, 20.9 32.42, 49.68 0.79 M1.14 56.64 C12.1 44.39, 22.75 31.66, 49.68 0.79 M0.87 63.04 C13.96 45.28, 29.78 27.95, 55.33 0.39 M0.87 63.04 C17.15 43.44, 35.15 23.69, 55.33 0.39 M1.27 68.68 C14.27 54.03, 28.33 36.23, 59 2.26 M1.27 68.68 C14.69 55.55, 26.62 40.59, 59 2.26 M1.01 75.08 C19.62 52.81, 39.54 34.96, 62.68 4.13 M1.01 75.08 C24.62 48.84, 48.25 21.7, 62.68 4.13 M0.75 81.47 C25.76 53.77, 50.7 22.31, 66.35 6 M0.75 81.47 C22.7 54.46, 45.87 28.5, 66.35 6 M1.14 87.12 C17.88 71.31, 32.69 53.84, 68.06 10.14 M1.14 87.12 C20.93 61.95, 43.69 38.34, 68.06 10.14 M0.88 93.51 C21.6 67.46, 46.59 42.38, 68.45 15.78 M0.88 93.51 C21.94 70.98, 40.8 47.72, 68.45 15.78 M1.27 99.16 C24.4 74.47, 45.56 47.95, 70.82 19.16 M1.27 99.16 C16.97 81.22, 31.72 63.87, 70.82 19.16 M1.01 105.56 C26.2 74.83, 54.69 47.56, 70.55 25.56 M1.01 105.56 C17.11 86.6, 33 68.55, 70.55 25.56 M0.75 111.95 C26.51 80.58, 52.02 51.69, 70.95 31.2 M0.75 111.95 C22.03 87.56, 45.53 62.37, 70.95 31.2 M1.15 117.6 C24.03 91.63, 45.63 70.41, 70.69 37.6 M1.15 117.6 C26.91 88.25, 53.41 59.18, 70.69 37.6 M0.88 123.99 C16.39 106.15, 32.75 87.35, 70.43 44 M0.88 123.99 C20.14 100.51, 40.32 76.88, 70.43 44 M1.28 129.64 C22.26 103.12, 44.97 76.4, 70.82 49.64 M1.28 129.64 C17.85 112.04, 32.99 91.71, 70.82 49.64 M1.02 136.04 C26.55 110.82, 51.16 79.98, 70.56 56.04 M1.02 136.04 C18.78 115.3, 35.37 95.59, 70.56 56.04 M0.76 142.43 C25.08 113.05, 49.32 86.56, 70.95 61.68 M0.76 142.43 C27.52 112.21, 52.89 80.68, 70.95 61.68 M1.15 148.08 C24.6 118.01, 47.96 92.12, 70.69 68.08 M1.15 148.08 C22.34 123.08, 45.43 97.39, 70.69 68.08 M3.51 151.45 C18.31 131.17, 34.72 114.35, 70.43 74.47 M3.51 151.45 C22.21 129.16, 40.68 108.64, 70.43 74.47 M5.88 154.83 C25.99 135.9, 42.34 112.95, 70.83 80.12 M5.88 154.83 C20.31 137.69, 34.21 122.65, 70.83 80.12 M8.24 158.21 C26 140.22, 41.6 120.55, 70.56 86.52 M8.24 158.21 C34.5 128.78, 59.1 101.79, 70.56 86.52 M13.23 158.57 C26.19 145.7, 38.95 130.21, 70.96 92.16 M13.23 158.57 C33.64 136.36, 53.96 113.04, 70.96 92.16 M18.21 158.93 C29.8 143.93, 42.7 132.46, 70.7 98.56 M18.21 158.93 C38.57 135.28, 57.76 112.65, 70.7 98.56 M23.86 158.54 C40.48 138.82, 57.64 117.83, 70.44 104.95 M23.86 158.54 C34.78 146.34, 45.79 132.86, 70.44 104.95 M29.5 158.14 C37.89 146.74, 49.41 134.83, 70.83 110.6 M29.5 158.14 C39 147.69, 47.36 136.71, 70.83 110.6 M34.49 158.5 C43.95 148.27, 53.2 137.58, 70.57 116.99 M34.49 158.5 C47.91 144.8, 60 129.22, 70.57 116.99 M40.13 158.11 C47.4 151.77, 53.32 141.59, 70.96 122.64 M40.13 158.11 C48.59 147.65, 57.82 137.78, 70.96 122.64 M45.12 158.47 C52.86 149.67, 61.26 139.47, 70.7 129.04 M45.12 158.47 C51.39 151.72, 56.92 144.32, 70.7 129.04 M50.76 158.07 C53.57 151.75, 59.64 148.11, 70.44 135.43 M50.76 158.07 C57.52 149.75, 65.23 142.04, 70.44 135.43 M56.4 157.68 C59.15 152.95, 62.05 151.4, 69.52 142.59 M56.4 157.68 C59.79 154.11, 62.37 150.04, 69.52 142.59" stroke="#a5d8ff" stroke-width="0.5" fill="none"></path><path d="M17.05 0 M17.05 0 C24.77 1.08, 35.08 -0.11, 51.16 0 M17.05 0 C27.78 0.62, 39.83 0.99, 51.16 0 M51.16 0 C61.2 -0.71, 69.58 5.37, 68.21 17.05 M51.16 0 C64.54 -0.39, 70.14 5.87, 68.21 17.05 M68.21 17.05 C69.62 44.71, 70.81 73.55, 68.21 141.91 M68.21 17.05 C67.88 44.23, 68.14 72.8, 68.21 141.91 M68.21 141.91 C70.15 154.16, 61.9 159.05, 51.16 158.97 M68.21 141.91 C69.51 154.39, 61.75 159.55, 51.16 158.97 M51.16 158.97 C37.03 157.59, 23.58 159.01, 17.05 158.97 M51.16 158.97 C44.07 159.54, 36.45 158.15, 17.05 158.97 M17.05 158.97 C4.98 159.51, -1.97 153.91, 0 141.91 M17.05 158.97 C4.57 158.11, -2.27 154.58, 0 141.91 M0 141.91 C0.93 105.45, -0.64 64.23, 0 17.05 M0 141.91 C0.61 107.44, 1.07 74.37, 0 17.05 M0 17.05 C-1.29 7.01, 5.82 -0.47, 17.05 0 M0 17.05 C1.83 3.92, 7.57 0.27, 17.05 0" stroke="#1e1e1e" stroke-width="1" fill="none"></path></g><g transform="translate(229.89726187966085 405.7425426136364) rotate(0 13.269996643066406 12.5)"><text x="13.269996643066406" y="0" font-family="Virgil, Segoe UI Emoji" font-size="20px" fill="#1e1e1e" text-anchor="middle" style="white-space: pre;" direction="ltr" dominant-baseline="text-before-edge">UK</text></g><g stroke-linecap="round" transform="translate(289.7201704545455 324.1706321022726) rotate(0 34.10582386363632 87.14009232954552)"><path d="M4.54 3.95 C4.54 3.95, 4.54 3.95, 4.54 3.95 M4.54 3.95 C4.54 3.95, 4.54 3.95, 4.54 3.95 M1 14.12 C3.25 12.19, 5.97 8.51, 10.84 2.8 M1 14.12 C4.43 10.09, 7.59 7.43, 10.84 2.8 M1.39 19.76 C8.48 11.47, 14.48 5.31, 17.79 0.89 M1.39 19.76 C5.41 14.08, 9.39 9.05, 17.79 0.89 M1.13 26.16 C9.78 16.57, 13.38 11.77, 22.78 1.25 M1.13 26.16 C8.65 19.63, 13.45 10.88, 22.78 1.25 M1.53 31.8 C7.96 22.52, 16.15 13.27, 28.42 0.86 M1.53 31.8 C6.34 25.39, 12.58 18.84, 28.42 0.86 M1.26 38.2 C12.88 23.8, 22.06 14.06, 33.41 1.22 M1.26 38.2 C11.89 24.12, 24.62 11.74, 33.41 1.22 M1 44.6 C14.92 31.23, 27.12 13.62, 38.4 1.58 M1 44.6 C10.52 32.17, 21.86 21.02, 38.4 1.58 M1.4 50.24 C9.14 39.48, 19.79 27.05, 44.04 1.18 M1.4 50.24 C15.38 34.95, 27.34 19.22, 44.04 1.18 M1.14 56.64 C12.13 41.66, 27.15 27.41, 49.03 1.54 M1.14 56.64 C19.95 35.49, 37.99 15.37, 49.03 1.54 M1.53 62.28 C11.39 49.83, 25.99 33.96, 54.01 1.9 M1.53 62.28 C19.89 42.02, 37.23 20.83, 54.01 1.9 M1.27 68.68 C15.52 54.7, 27.77 35.62, 59.66 1.51 M1.27 68.68 C21.44 45.19, 43.42 21.07, 59.66 1.51 M1.01 75.08 C18.91 52.71, 38.6 30.05, 62.68 4.13 M1.01 75.08 C15.07 58.56, 28.63 42.67, 62.68 4.13 M1.4 80.72 C16.49 63.4, 29.18 47.62, 65.7 6.76 M1.4 80.72 C13.7 66.44, 26.26 50.31, 65.7 6.76 M1.14 87.12 C21.06 63.25, 39.9 40.67, 68.71 9.38 M1.14 87.12 C23.04 62.52, 44.44 38.46, 68.71 9.38 M1.53 92.76 C17.23 76.29, 29.15 56.98, 69.76 14.27 M1.53 92.76 C27.66 63.19, 51.91 33.54, 69.76 14.27 M1.27 99.16 C19.23 77.6, 38.53 58.37, 69.5 20.67 M1.27 99.16 C21.36 76.24, 40.92 52.44, 69.5 20.67 M1.01 105.56 C28.44 73.92, 54.49 43.23, 69.9 26.31 M1.01 105.56 C21.13 82.17, 42.67 58.25, 69.9 26.31 M1.41 111.2 C20.93 89.03, 41.69 64.77, 69.64 32.71 M1.41 111.2 C19.7 90.07, 38.94 68.21, 69.64 32.71 M1.15 117.6 C23.5 91.62, 44.65 64.38, 69.38 39.11 M1.15 117.6 C21.71 95.08, 41.41 71.37, 69.38 39.11 M0.88 123.99 C16.82 108.82, 32.19 89.21, 69.77 44.75 M0.88 123.99 C19.43 102.98, 37.61 82.27, 69.77 44.75 M1.28 129.64 C16.75 110.5, 33.5 92.92, 69.51 51.15 M1.28 129.64 C16.58 111.09, 32.14 94.09, 69.51 51.15 M1.02 136.04 C28.08 105.94, 56.29 72.7, 69.9 56.79 M1.02 136.04 C23.14 110.27, 44.5 84.19, 69.9 56.79 M1.41 141.68 C21.84 118.14, 43.99 93.67, 69.64 63.19 M1.41 141.68 C16.27 123.9, 32.34 105.3, 69.64 63.19 M1.15 148.08 C12.85 131.73, 28.11 117.96, 69.38 69.59 M1.15 148.08 C15.96 131.6, 31.27 113.1, 69.38 69.59 M0.89 154.47 C24.05 130.36, 43.72 107.12, 69.77 75.23 M0.89 154.47 C15.71 137.44, 31.13 119.29, 69.77 75.23 M-0.03 161.63 C20.06 138.68, 41.96 113.85, 69.51 81.63 M-0.03 161.63 C23.22 135.67, 45.68 108.84, 69.51 81.63 M2.33 165.01 C21.8 141.41, 44.84 118.36, 69.91 87.27 M2.33 165.01 C28.51 135.24, 54.34 103.16, 69.91 87.27 M4.04 169.14 C24 143.28, 49.28 116.23, 69.65 93.67 M4.04 169.14 C28.84 141.65, 50.81 114.41, 69.65 93.67 M6.4 172.52 C22.53 153.11, 37.06 135.86, 69.38 100.07 M6.4 172.52 C24.95 151.3, 42.45 129.01, 69.38 100.07 M10.73 173.63 C28.12 151.92, 49.63 132.19, 69.78 105.71 M10.73 173.63 C26.78 157.25, 41.65 138.58, 69.78 105.71 M15.72 173.99 C27.54 161.41, 38.98 146.56, 69.52 112.11 M15.72 173.99 C33.8 151.76, 53.28 131.35, 69.52 112.11 M20.71 174.35 C32.35 162.76, 43.11 152.47, 69.26 118.5 M20.71 174.35 C32.18 161.15, 43.86 148.76, 69.26 118.5 M26.35 173.96 C44.55 156.03, 57.3 136.58, 69.65 124.15 M26.35 173.96 C40.54 157, 56.24 140.09, 69.65 124.15 M31.34 174.32 C42.33 160.49, 53.21 146.41, 69.39 130.55 M31.34 174.32 C46.73 158.46, 61.19 141.48, 69.39 130.55 M36.33 174.68 C50.25 161.69, 59.97 146.63, 69.78 136.19 M36.33 174.68 C49.23 160.83, 60.17 147.21, 69.78 136.19 M41.97 174.28 C49.59 164.43, 58.63 157.12, 69.52 142.59 M41.97 174.28 C50.39 165.73, 56.72 156.29, 69.52 142.59 M46.96 174.64 C50.98 168.25, 56.96 163.12, 69.26 148.98 M46.96 174.64 C51.49 169.77, 56.86 163.42, 69.26 148.98 M51.94 175 C59.77 166.78, 65.06 160.46, 69.66 154.63 M51.94 175 C58.94 168.51, 63.35 161, 69.66 154.63 M56.93 175.36 C62.55 169.31, 65.51 165.35, 68.74 161.78 M56.93 175.36 C60.25 172.23, 61.84 168.92, 68.74 161.78" stroke="#a5d8ff" stroke-width="0.5" fill="none"></path><path d="M17.05 0 M17.05 0 C27.1 -0.78, 33.26 0.01, 51.16 0 M17.05 0 C26.67 -0.26, 36.63 0.36, 51.16 0 M51.16 0 C61.97 0.05, 67.13 6.1, 68.21 17.05 M51.16 0 C61.43 -1.36, 68.3 4.96, 68.21 17.05 M68.21 17.05 C68.87 49.42, 67.9 84.73, 68.21 157.23 M68.21 17.05 C68.85 46.04, 67.14 76.14, 68.21 157.23 M68.21 157.23 C68.5 168.18, 63.81 172.73, 51.16 174.28 M68.21 157.23 C66.33 169.95, 63.68 175.32, 51.16 174.28 M51.16 174.28 C40.58 175.07, 33.41 174.83, 17.05 174.28 M51.16 174.28 C43.44 173.53, 35.64 174.6, 17.05 174.28 M17.05 174.28 C5.54 173.66, -1.47 167.33, 0 157.23 M17.05 174.28 C6.87 176.03, -0.69 170.46, 0 157.23 M0 157.23 C-0.86 113.44, -1.1 69.95, 0 17.05 M0 157.23 C-0.44 105.83, 1.16 52.44, 0 17.05 M0 17.05 C-1.34 4.13, 6.68 0.43, 17.05 0 M0 17.05 C-0.35 7.71, 6.45 -1.49, 17.05 0" stroke="#1e1e1e" stroke-width="1" fill="none"></path></g><g transform="translate(308.4560068303889 398.81072443181813) rotate(0 15.369987487792969 12.5)"><text x="15.369987487792969" y="0" font-family="Virgil, Segoe UI Emoji" font-size="20px" fill="#1e1e1e" text-anchor="middle" style="white-space: pre;" direction="ltr" dominant-baseline="text-before-edge">Bel</text></g><g stroke-linecap="round" transform="translate(371.31818181818187 303.2828480113634) rotate(0 33.81640624999994 96.56125710227286)"><path d="M4.5 3.91 C4.5 3.91, 4.5 3.91, 4.5 3.91 M4.5 3.91 C4.5 3.91, 4.5 3.91, 4.5 3.91 M0.96 14.08 C3.52 10.41, 4.71 8.16, 10.8 2.76 M0.96 14.08 C2.79 12.07, 4.4 8.96, 10.8 2.76 M1.35 19.73 C6.68 13.23, 10.56 7.87, 17.75 0.86 M1.35 19.73 C6.84 13.73, 12.09 8.24, 17.75 0.86 M1.09 26.12 C6.68 21.43, 8.64 13.57, 22.74 1.22 M1.09 26.12 C9.79 16.87, 16.58 7.3, 22.74 1.22 M1.49 31.77 C8.9 22.45, 17.27 15.8, 28.39 0.82 M1.49 31.77 C9.52 22.82, 16.9 13.04, 28.39 0.82 M1.23 38.17 C14.57 22.67, 26.63 8.08, 33.37 1.18 M1.23 38.17 C10.18 27.46, 20.51 16.44, 33.37 1.18 M0.96 44.56 C11.63 32.44, 23.54 18.36, 38.36 1.54 M0.96 44.56 C10.63 32.96, 21.57 20.66, 38.36 1.54 M1.36 50.21 C15.15 34.07, 27.85 16.55, 44 1.15 M1.36 50.21 C14.44 36.36, 26.53 21.4, 44 1.15 M1.1 56.6 C12.45 46.49, 23.36 32.01, 48.99 1.51 M1.1 56.6 C14.26 41.94, 26.89 27.62, 48.99 1.51 M1.49 62.25 C13.5 47.33, 26.66 33.89, 53.98 1.87 M1.49 62.25 C13.24 47.8, 25.26 34.85, 53.98 1.87 M1.23 68.64 C23.93 43.6, 47.71 15.45, 58.96 2.23 M1.23 68.64 C19.83 46.95, 37.55 25.05, 58.96 2.23 M0.97 75.04 C19.38 53.76, 39.58 31.52, 62.64 4.1 M0.97 75.04 C14.3 59, 28.88 42.12, 62.64 4.1 M1.36 80.69 C12.3 65.25, 26.77 52.39, 65.66 6.72 M1.36 80.69 C15.27 65.18, 29.72 47.68, 65.66 6.72 M1.1 87.08 C23.22 64.13, 41.88 42.06, 66.71 11.61 M1.1 87.08 C15.22 70.9, 29.91 53.59, 66.71 11.61 M1.5 92.73 C21 70.45, 42.33 46.29, 69.07 14.99 M1.5 92.73 C24.11 67.51, 45.92 41.42, 69.07 14.99 M1.23 99.12 C20.9 75.3, 44.14 52.01, 69.46 20.63 M1.23 99.12 C27.66 69.06, 53.75 36.68, 69.46 20.63 M0.97 105.52 C21.8 78.62, 47.96 50.54, 69.2 27.03 M0.97 105.52 C26.73 76.96, 49.65 48.63, 69.2 27.03 M1.37 111.17 C18.79 90.19, 34.67 71.38, 69.6 32.68 M1.37 111.17 C21.41 88.15, 40.43 64.11, 69.6 32.68 M1.11 117.56 C21.49 92.51, 45.93 69.41, 69.34 39.07 M1.11 117.56 C19.52 98.48, 36.68 77.18, 69.34 39.07 M1.5 123.21 C16.13 107.09, 30.54 88.84, 69.08 45.47 M1.5 123.21 C24.33 95.41, 48.53 69.57, 69.08 45.47 M1.24 129.6 C17.23 113.12, 32.13 98.08, 69.47 51.11 M1.24 129.6 C17.23 111.27, 33.47 93.64, 69.47 51.11 M0.98 136 C28.66 107.66, 50.62 77.6, 69.21 57.51 M0.98 136 C23.83 109.1, 48.05 82.4, 69.21 57.51 M1.37 141.64 C21.23 117.52, 41.11 93.09, 69.6 63.15 M1.37 141.64 C28.23 112.75, 54.16 82.57, 69.6 63.15 M1.11 148.04 C28.16 120.04, 50.79 90.13, 69.34 69.55 M1.11 148.04 C26.57 119.81, 49.8 92.06, 69.34 69.55 M1.51 153.69 C19.88 131.31, 39.81 111.49, 69.08 75.95 M1.51 153.69 C21.31 131.99, 38.9 109.61, 69.08 75.95 M1.24 160.08 C15.94 141.99, 32.2 125.04, 69.47 81.59 M1.24 160.08 C15.3 143.96, 30.44 126.36, 69.47 81.59 M0.98 166.48 C25.56 139.57, 47.3 114.32, 69.21 87.99 M0.98 166.48 C25.67 140.35, 47.41 112.91, 69.21 87.99 M1.38 172.12 C28.97 141.3, 53.55 112.41, 69.61 93.63 M1.38 172.12 C17.05 154.76, 31.28 136.74, 69.61 93.63 M1.12 178.52 C20.44 157.72, 35.41 138.25, 69.35 100.03 M1.12 178.52 C21.45 155.2, 41.42 132.78, 69.35 100.03 M2.82 182.66 C21.27 161.31, 37.71 141.57, 69.08 106.43 M2.82 182.66 C21.13 162.15, 38.53 141.2, 69.08 106.43 M3.87 187.54 C29.69 161.51, 52.13 129.97, 69.48 112.07 M3.87 187.54 C22.89 165.65, 39.9 145.76, 69.48 112.07 M6.89 190.17 C28.58 166.26, 48.37 140.87, 69.22 118.47 M6.89 190.17 C23.63 169.66, 42.91 148.8, 69.22 118.47 M9.91 192.79 C31.51 165.46, 53.38 142.05, 69.61 124.11 M9.91 192.79 C32.61 166.15, 54.87 139.99, 69.61 124.11 M15.55 192.4 C30.55 177.16, 43.95 160.98, 69.35 130.51 M15.55 192.4 C35.85 167.09, 58.37 143.52, 69.35 130.51 M20.54 192.76 C32.58 176.85, 48.75 159.34, 69.09 136.91 M20.54 192.76 C32.93 176.59, 45.74 162.73, 69.09 136.91 M25.53 193.12 C35.88 181.24, 45.82 170.45, 69.48 142.55 M25.53 193.12 C41.78 173.18, 59.03 155.26, 69.48 142.55 M31.17 192.72 C43.31 179.35, 54.11 166.74, 69.22 148.95 M31.17 192.72 C44.38 176.57, 59.6 161.07, 69.22 148.95 M36.16 193.08 C46.98 181.38, 60.44 169.06, 69.62 154.59 M36.16 193.08 C43.81 184, 49.52 177.09, 69.62 154.59 M41.15 193.44 C53.15 181.75, 63.92 169.68, 69.36 160.99 M41.15 193.44 C48.63 183.36, 58.57 173.99, 69.36 160.99 M46.79 193.05 C51.6 187.66, 56.86 180.05, 69.09 167.39 M46.79 193.05 C53.09 185.21, 60.48 176.61, 69.09 167.39 M51.78 193.41 C56.69 189.59, 60.04 184.16, 69.49 173.03 M51.78 193.41 C54.97 188.88, 58.92 184.92, 69.49 173.03 M56.11 194.52 C57.52 191.04, 63.26 188.87, 67.92 180.94 M56.11 194.52 C59.56 190.45, 61.91 186.97, 67.92 180.94" stroke="#a5d8ff" stroke-width="0.5" fill="none"></path><path d="M16.91 0 M16.91 0 C25.34 0.84, 36.43 1.97, 50.72 0 M16.91 0 C26.34 1.04, 35.03 -0.69, 50.72 0 M50.72 0 C63.1 -1.02, 68.21 5.06, 67.63 16.91 M50.72 0 C63.87 -0.57, 66.34 6.35, 67.63 16.91 M67.63 16.91 C68.77 58.1, 68.6 98.5, 67.63 176.21 M67.63 16.91 C67.23 63.2, 66.86 110.24, 67.63 176.21 M67.63 176.21 C66.13 188.82, 60.99 194.33, 50.72 193.12 M67.63 176.21 C65.46 186.88, 61.53 193.92, 50.72 193.12 M50.72 193.12 C42.19 194.52, 34.52 191.47, 16.91 193.12 M50.72 193.12 C41.59 193.21, 32.51 193.57, 16.91 193.12 M16.91 193.12 C7.6 193.29, -1.34 188.09, 0 176.21 M16.91 193.12 C7.91 192.34, -2.17 187.16, 0 176.21 M0 176.21 C2.17 134.57, 0.45 91.25, 0 16.91 M0 176.21 C-1.36 138.09, -1.44 99.87, 0 16.91 M0 16.91 C1.84 4.34, 6.29 -1.88, 16.91 0 M0 16.91 C1.72 4.95, 5.99 -1.73, 16.91 0" stroke="#1e1e1e" stroke-width="1" fill="none"></path></g><g transform="translate(386.38460332697093 387.34410511363626) rotate(0 18.749984741210938 12.5)"><text x="18.749984741210938" y="0" font-family="Virgil, Segoe UI Emoji" font-size="20px" fill="#1e1e1e" text-anchor="middle" style="white-space: pre;" direction="ltr" dominant-baseline="text-before-edge">Mex</text></g><g stroke-linecap="round" transform="translate(450.7056107954545 280.6976207386363) rotate(0 34.761008522727195 108.17169744318196)"><path d="M2.13 7.15 C2.13 7.15, 2.13 7.15, 2.13 7.15 M2.13 7.15 C2.13 7.15, 2.13 7.15, 2.13 7.15 M1.21 14.3 C5.36 10.76, 7.23 7.28, 9.74 4.49 M1.21 14.3 C3.57 11.23, 6.4 8.99, 9.74 4.49 M1.61 19.95 C7.44 15.54, 9.22 9.2, 18.01 1.08 M1.61 19.95 C4.84 15.41, 9 11.5, 18.01 1.08 M1.35 26.34 C5.79 22.05, 11.77 14.83, 23.65 0.68 M1.35 26.34 C9.72 17.26, 16.74 9.06, 23.65 0.68 M1.08 32.74 C12.32 22.82, 18.45 10.91, 28.64 1.04 M1.08 32.74 C12.34 20.2, 22.09 8.67, 28.64 1.04 M1.48 38.39 C10.13 29.94, 15 21.03, 33.63 1.4 M1.48 38.39 C10.62 28.55, 17.6 19.4, 33.63 1.4 M1.22 44.78 C12 31.42, 23.05 19.81, 39.27 1.01 M1.22 44.78 C11.78 32.59, 21.34 21.19, 39.27 1.01 M1.61 50.43 C13.43 37.42, 24.09 23.28, 44.26 1.37 M1.61 50.43 C18.29 33.22, 33.18 13.23, 44.26 1.37 M1.35 56.82 C16.05 39.86, 26.61 27.07, 49.24 1.73 M1.35 56.82 C17.96 38.21, 33.71 18.77, 49.24 1.73 M1.09 63.22 C14.41 45.13, 32.67 26.79, 54.89 1.34 M1.09 63.22 C20.8 39.18, 40.77 17.08, 54.89 1.34 M1.48 68.86 C23.73 42.48, 45.3 16.55, 59.87 1.7 M1.48 68.86 C16.9 52.78, 31.24 35.9, 59.87 1.7 M1.22 75.26 C24.17 45.29, 51.25 18.81, 63.55 3.57 M1.22 75.26 C17.69 54.72, 36.61 33.5, 63.55 3.57 M1.62 80.91 C17.86 58.72, 34.94 40.83, 66.57 6.19 M1.62 80.91 C16.28 63.64, 31.01 47.01, 66.57 6.19 M1.35 87.3 C26.4 56.08, 53.29 28.97, 69.58 8.81 M1.35 87.3 C22.43 62.9, 43.21 38.9, 69.58 8.81 M1.09 93.7 C24.86 64.44, 52.71 36.45, 69.98 14.46 M1.09 93.7 C24.1 67.81, 48.39 41.47, 69.98 14.46 M1.49 99.34 C17.21 80.69, 29.06 66.39, 70.37 20.1 M1.49 99.34 C28.67 69.5, 55.03 39.34, 70.37 20.1 M1.23 105.74 C19.89 81.33, 43.4 58.41, 70.11 26.5 M1.23 105.74 C17.87 85.39, 35.37 64.49, 70.11 26.5 M1.62 111.39 C21.64 87.09, 43.71 61.49, 70.51 32.14 M1.62 111.39 C17.05 93.76, 32.09 75.68, 70.51 32.14 M1.36 117.78 C14.81 101.06, 29.58 85.23, 70.25 38.54 M1.36 117.78 C16.26 99.48, 33.88 81.68, 70.25 38.54 M1.1 124.18 C19.39 102.79, 35.31 82.77, 69.98 44.94 M1.1 124.18 C19.28 104.13, 38.5 83.85, 69.98 44.94 M1.49 129.82 C20.75 110.04, 38.47 84.71, 70.38 50.58 M1.49 129.82 C26.08 102.29, 50.58 72.77, 70.38 50.58 M1.23 136.22 C25.29 110.1, 47.99 83.71, 70.12 56.98 M1.23 136.22 C24.74 110.77, 48.31 83.42, 70.12 56.98 M1.63 141.86 C28.23 111.53, 54.37 78.71, 70.51 62.62 M1.63 141.86 C21.22 119.37, 40.04 98.61, 70.51 62.62 M1.36 148.26 C27.89 120.34, 55 87.88, 70.25 69.02 M1.36 148.26 C28.63 115.54, 56.12 85.82, 70.25 69.02 M1.1 154.66 C19.6 131.56, 38.24 112.85, 70.65 74.66 M1.1 154.66 C22.51 130.94, 44.58 105.16, 70.65 74.66 M1.5 160.3 C24.5 135.03, 44.19 110.43, 70.38 81.06 M1.5 160.3 C26.81 129.97, 53 100.34, 70.38 81.06 M1.24 166.7 C21.1 141.4, 44.83 112.78, 70.12 87.46 M1.24 166.7 C22.27 143.11, 43.96 118.92, 70.12 87.46 M0.97 173.1 C25.97 142.13, 55.7 110.37, 70.52 93.1 M0.97 173.1 C23.74 146.67, 47.55 121.24, 70.52 93.1 M1.37 178.74 C17.01 159.3, 35.3 142.65, 70.26 99.5 M1.37 178.74 C29.47 147.48, 54.94 116.83, 70.26 99.5 M1.11 185.14 C27.12 156.08, 53.4 127, 70.65 105.14 M1.11 185.14 C22.75 160.38, 44.41 135.84, 70.65 105.14 M1.5 190.78 C26.29 163.52, 47.36 137.35, 70.39 111.54 M1.5 190.78 C15.68 173, 30.85 155.93, 70.39 111.54 M1.24 197.18 C28.12 166.97, 53.58 136.31, 70.13 117.94 M1.24 197.18 C20.57 174.28, 39.01 153.39, 70.13 117.94 M0.98 203.58 C18.48 181.32, 36.99 161.19, 70.52 123.58 M0.98 203.58 C22.56 177.39, 45.88 152.29, 70.52 123.58 M2.69 207.71 C15.86 191.77, 29.67 178.1, 70.26 129.98 M2.69 207.71 C15.95 190.66, 28.74 176.29, 70.26 129.98 M4.39 211.85 C26.38 187.6, 44.53 165.72, 70.65 135.62 M4.39 211.85 C29.96 181.82, 55.85 153.07, 70.65 135.62 M8.07 213.72 C18.85 198.43, 32.09 186.08, 70.39 142.02 M8.07 213.72 C29.06 188.02, 51.09 163.54, 70.39 142.02 M11.09 216.34 C33.27 188.97, 56.06 162.85, 70.13 148.42 M11.09 216.34 C30.66 192.1, 50.53 170.07, 70.13 148.42 M16.07 216.7 C26.11 203.63, 37.19 190.53, 70.53 154.06 M16.07 216.7 C36.53 191.48, 58.62 168.03, 70.53 154.06 M21.72 216.31 C40.04 194.4, 56.89 173.68, 70.27 160.46 M21.72 216.31 C35.84 200.61, 49.2 186.88, 70.27 160.46 M26.7 216.67 C34.62 205.78, 45.67 193.46, 70.66 166.1 M26.7 216.67 C38.82 202.53, 52.44 186.78, 70.66 166.1 M31.69 217.03 C43.03 201.72, 56.76 184.86, 70.4 172.5 M31.69 217.03 C43.46 203.12, 55.67 188.62, 70.4 172.5 M37.33 216.63 C46.03 206.08, 58.71 191.35, 70.79 178.14 M37.33 216.63 C47.11 206.14, 55.73 195.5, 70.79 178.14 M42.32 216.99 C49 209.69, 57.82 199.01, 70.53 184.54 M42.32 216.99 C52.87 203.33, 64 191.71, 70.53 184.54 M47.31 217.35 C54.7 210.01, 62.41 202.09, 70.27 190.94 M47.31 217.35 C55.02 206.5, 64.77 196.04, 70.27 190.94 M52.95 216.96 C58.5 211.65, 58.36 206.74, 70.66 196.58 M52.95 216.96 C57.7 211.25, 62.21 206.86, 70.66 196.58 M57.94 217.32 C63.68 210.42, 67.06 205.91, 71.72 201.47 M57.94 217.32 C61.77 212.54, 66.8 206.9, 71.72 201.47" stroke="#a5d8ff" stroke-width="0.5" fill="none"></path><path d="M17.38 0 M17.38 0 C24.27 -1.74, 32.66 1.02, 52.14 0 M17.38 0 C29.34 0.16, 41.01 -0.54, 52.14 0 M52.14 0 C63.77 -1.54, 67.96 6.31, 69.52 17.38 M52.14 0 C62.18 0.98, 70.94 6.35, 69.52 17.38 M69.52 17.38 C71.04 63.82, 68.29 111.82, 69.52 198.96 M69.52 17.38 C69.86 74.81, 68.81 133.21, 69.52 198.96 M69.52 198.96 C67.81 208.87, 64.76 217.17, 52.14 216.34 M69.52 198.96 C69.11 211.65, 64.17 215.47, 52.14 216.34 M52.14 216.34 C41.56 217.86, 35.73 216.92, 17.38 216.34 M52.14 216.34 C40.99 216.97, 30.33 215.22, 17.38 216.34 M17.38 216.34 C4.85 216.8, -1.56 209.08, 0 198.96 M17.38 216.34 C4.73 214.81, -1.59 208.47, 0 198.96 M0 198.96 C-1.39 151.53, 0.7 101.88, 0 17.38 M0 198.96 C-2.42 157.54, -2.12 116.01, 0 17.38 M0 17.38 C-1.13 5.15, 4.36 -1.76, 17.38 0 M0 17.38 C0.89 7.09, 3.77 1.71, 17.38 0" stroke="#1e1e1e" stroke-width="1" fill="none"></path></g><g transform="translate(467.51663762872863 376.36931818181824) rotate(0 17.949981689453125 12.5)"><text x="17.949981689453125" y="0" font-family="Virgil, Segoe UI Emoji" font-size="20px" fill="#1e1e1e" text-anchor="middle" style="white-space: pre;" direction="ltr" dominant-baseline="text-before-edge">Sing</text></g><g stroke-linecap="round" transform="translate(535.4108664772729 256.3599076704543) rotate(0 35.190696022727195 120.48171164772748)"><path d="M4.68 4.07 C4.68 4.07, 4.68 4.07, 4.68 4.07 M4.68 4.07 C4.68 4.07, 4.68 4.07, 4.68 4.07 M1.14 14.24 C5.4 9.4, 6.17 8.81, 11.64 2.17 M1.14 14.24 C5.25 10.9, 8.1 5.93, 11.64 2.17 M0.88 20.64 C8.12 13.13, 12.59 7.19, 18.59 0.26 M0.88 20.64 C4.37 15.67, 9.53 12.69, 18.59 0.26 M1.27 26.28 C7.44 19.62, 12.07 14.7, 23.58 0.62 M1.27 26.28 C6 19.09, 12.9 14.07, 23.58 0.62 M1.01 32.68 C10.57 19.5, 19.53 8.62, 28.57 0.98 M1.01 32.68 C7.71 24.25, 15.18 16.76, 28.57 0.98 M1.41 38.32 C9.54 28.53, 16.65 21.05, 33.55 1.34 M1.41 38.32 C12.37 24.77, 24.29 11.21, 33.55 1.34 M1.15 44.72 C13.29 31.78, 21.98 19.1, 39.2 0.95 M1.15 44.72 C11.7 31.91, 23.86 18.07, 39.2 0.95 M0.89 51.12 C11.11 38.32, 23.06 25.1, 44.19 1.31 M0.89 51.12 C15.84 34.17, 30.55 15.75, 44.19 1.31 M1.28 56.76 C16.14 42.2, 27.71 25.32, 49.17 1.67 M1.28 56.76 C12.64 43.26, 25.2 29.34, 49.17 1.67 M1.02 63.16 C22.4 42.31, 38.76 18.08, 54.82 1.27 M1.02 63.16 C15.97 45.7, 32.13 27.54, 54.82 1.27 M1.41 68.8 C21.84 47.24, 35.97 26.94, 59.8 1.63 M1.41 68.8 C17.72 51.43, 32.2 33.05, 59.8 1.63 M1.15 75.2 C15.02 58.17, 29.78 40.86, 63.48 3.5 M1.15 75.2 C25.11 47.64, 50.19 18.93, 63.48 3.5 M0.89 81.6 C15.28 65.29, 33 49.28, 67.15 5.37 M0.89 81.6 C13.12 66.54, 27.67 50.34, 67.15 5.37 M1.28 87.24 C23.66 63.61, 44.92 36.78, 68.86 9.51 M1.28 87.24 C16.37 68.88, 32.63 50.14, 68.86 9.51 M1.02 93.64 C21.51 69.19, 39.8 46.27, 70.57 13.64 M1.02 93.64 C20.77 71.84, 39.27 49.14, 70.57 13.64 M1.42 99.28 C27.36 70.56, 54.02 40.19, 70.3 20.04 M1.42 99.28 C23.12 74.39, 44.2 50.37, 70.3 20.04 M1.16 105.68 C25.2 79.71, 46.53 53.8, 70.7 25.68 M1.16 105.68 C25.69 78.01, 49.59 52.26, 70.7 25.68 M0.89 112.08 C21.24 91.11, 39.36 68.68, 70.44 32.08 M0.89 112.08 C23.58 85.35, 47.37 59.69, 70.44 32.08 M1.29 117.72 C27.59 89.27, 48.5 61.62, 70.18 38.48 M1.29 117.72 C17.11 100.68, 33.32 82.06, 70.18 38.48 M1.03 124.12 C19.07 102.92, 35.91 83.69, 70.57 44.12 M1.03 124.12 C22.69 99.21, 43.87 77.12, 70.57 44.12 M1.42 129.76 C26.31 103.3, 47.86 77.91, 70.31 50.52 M1.42 129.76 C28.62 99.85, 56.23 67.79, 70.31 50.52 M1.16 136.16 C26.5 105.77, 50.87 81.67, 70.7 56.16 M1.16 136.16 C17.74 118.96, 31.93 100.94, 70.7 56.16 M0.9 142.56 C15 128.26, 29.66 109.82, 70.44 62.56 M0.9 142.56 C19.13 122.24, 38.35 101.37, 70.44 62.56 M1.29 148.2 C21.75 124.7, 38.89 106.01, 70.84 68.2 M1.29 148.2 C16.79 131.67, 33.13 113.86, 70.84 68.2 M1.03 154.6 C21.89 132.4, 43.4 108.13, 70.58 74.6 M1.03 154.6 C23.86 128.47, 45.94 101.84, 70.58 74.6 M1.43 160.24 C27.07 130.49, 50.02 103.47, 70.31 81 M1.43 160.24 C15.83 142.86, 32.74 125.32, 70.31 81 M1.17 166.64 C18.12 147.95, 35.88 128.23, 70.71 86.64 M1.17 166.64 C15.5 149.92, 32.29 132.12, 70.71 86.64 M0.9 173.04 C20.08 151.49, 39.81 130.73, 70.45 93.04 M0.9 173.04 C15.87 153.52, 32.44 135.73, 70.45 93.04 M1.3 178.68 C25.45 150.05, 48.43 122.06, 70.84 98.68 M1.3 178.68 C16.22 161.97, 30.95 143.55, 70.84 98.68 M1.04 185.08 C18.09 167.48, 31.85 150.82, 70.58 105.08 M1.04 185.08 C22.22 161.68, 43.14 137.62, 70.58 105.08 M1.43 190.72 C14.48 172.48, 28.81 157.71, 70.32 111.48 M1.43 190.72 C27.79 159.83, 55.27 129.69, 70.32 111.48 M1.17 197.12 C25.41 169.14, 52.54 138.01, 70.71 117.12 M1.17 197.12 C25.97 169.55, 50.99 141.16, 70.71 117.12 M0.91 203.52 C16.64 184.73, 32.21 167.73, 70.45 123.52 M0.91 203.52 C17.2 187.33, 32.4 169.71, 70.45 123.52 M1.3 209.16 C18.76 188.51, 36.68 165.56, 70.85 129.16 M1.3 209.16 C25.13 183.03, 46.74 156.56, 70.85 129.16 M1.04 215.56 C23.36 189.28, 48.65 159.99, 70.58 135.56 M1.04 215.56 C25.06 187.33, 49.41 157.69, 70.58 135.56 M1.44 221.2 C26.28 193.85, 48.78 164.61, 70.32 141.96 M1.44 221.2 C19.82 201.02, 37.88 179.27, 70.32 141.96 M0.52 228.35 C26 201.1, 45.33 175.35, 70.72 147.6 M0.52 228.35 C23.35 202.13, 45.78 175.83, 70.72 147.6 M2.23 232.49 C18.63 212.62, 38.72 190.17, 70.46 154 M2.23 232.49 C16.42 215.29, 32.33 197.35, 70.46 154 M4.59 235.87 C19.19 218.57, 38.2 197.5, 70.85 159.64 M4.59 235.87 C28.46 206.54, 53.09 177.67, 70.85 159.64 M7.61 238.49 C22.8 222.37, 35.89 206.5, 70.59 166.04 M7.61 238.49 C29.85 213.17, 53.18 187.04, 70.59 166.04 M10.63 241.11 C34.6 213.33, 57.4 183.83, 70.98 171.68 M10.63 241.11 C24.08 225.7, 39.85 208.52, 70.98 171.68 M16.27 240.72 C35.93 218.15, 55.44 197.1, 70.72 178.08 M16.27 240.72 C29.04 226.53, 40.63 213.45, 70.72 178.08 M21.26 241.08 C33.28 230.41, 43.03 217.05, 70.46 184.48 M21.26 241.08 C38.83 220.84, 56.29 200.16, 70.46 184.48 M26.9 240.69 C36.83 227.44, 51.16 212.52, 70.86 190.12 M26.9 240.69 C38.85 227.89, 50.44 214.33, 70.86 190.12 M31.89 241.05 C45.5 227.24, 55 214.56, 70.59 196.52 M31.89 241.05 C44.48 227, 56.31 213.67, 70.59 196.52 M36.87 241.41 C48.62 226.22, 62.76 212.75, 70.99 202.16 M36.87 241.41 C48.96 227.57, 62.75 211.33, 70.99 202.16 M42.52 241.01 C49.42 230.96, 58.83 222.71, 70.73 208.56 M42.52 241.01 C51.87 229.97, 61.38 218.49, 70.73 208.56 M47.5 241.37 C52.73 234.93, 63.23 223.77, 70.47 214.96 M47.5 241.37 C53.79 233.58, 61.61 224.39, 70.47 214.96 M52.49 241.73 C59.23 236.65, 63.01 232.35, 70.86 220.6 M52.49 241.73 C59.5 233.35, 66.59 224.54, 70.86 220.6 M58.13 241.34 C61.59 235.3, 65.74 232.64, 72.57 224.73 M58.13 241.34 C61.74 236.61, 65.18 233.48, 72.57 224.73" stroke="#a5d8ff" stroke-width="0.5" fill="none"></path><path d="M17.6 0 M17.6 0 C31.21 -0.94, 45.29 -1.57, 52.79 0 M17.6 0 C29.81 0.93, 41.67 -0.1, 52.79 0 M52.79 0 C63.76 1.73, 69.09 5.1, 70.38 17.6 M52.79 0 C64.87 0.41, 68.2 5.81, 70.38 17.6 M70.38 17.6 C72.92 99.32, 70.59 180.01, 70.38 223.37 M70.38 17.6 C70.71 67.11, 71.44 117.84, 70.38 223.37 M70.38 223.37 C68.64 236.95, 66.06 241.02, 52.79 240.96 M70.38 223.37 C70.97 233.76, 63.02 241.9, 52.79 240.96 M52.79 240.96 C39.94 240.82, 30.52 239.44, 17.6 240.96 M52.79 240.96 C44.37 240.93, 33.94 241.63, 17.6 240.96 M17.6 240.96 C7.5 242.12, 1.87 233.81, 0 223.37 M17.6 240.96 C5.77 242.86, -1.75 236.98, 0 223.37 M0 223.37 C0.45 159.51, 1.49 100.03, 0 17.6 M0 223.37 C0.27 142.38, 0.48 61.98, 0 17.6 M0 17.6 C-0.17 6.17, 5.13 0.24, 17.6 0 M0 17.6 C-0.24 4.28, 4.63 -0.57, 17.6 0" stroke="#1e1e1e" stroke-width="1" fill="none"></path></g><g transform="translate(554.2315826416017 364.34161931818176) rotate(0 16.369979858398438 12.5)"><text x="16.369979858398438" y="0" font-family="Virgil, Segoe UI Emoji" font-size="20px" fill="#1e1e1e" text-anchor="middle" style="white-space: pre;" direction="ltr" dominant-baseline="text-before-edge">Phil</text></g><g stroke-linecap="round" transform="translate(617.6303267045456 242.81054687499972) rotate(0 37.0408380681817 126.77077414772751)"><path d="M2.44 7.42 C2.44 7.42, 2.44 7.42, 2.44 7.42 M2.44 7.42 C2.44 7.42, 2.44 7.42, 2.44 7.42 M0.87 15.33 C4.82 12.41, 6.65 9.35, 10.05 4.76 M0.87 15.33 C4.61 11.21, 7.77 8.8, 10.05 4.76 M1.26 20.97 C7.09 16.79, 10.58 11.18, 18.98 0.6 M1.26 20.97 C6.87 14.01, 13.5 8.1, 18.98 0.6 M1 27.37 C10.93 17.41, 15.66 8.37, 23.96 0.96 M1 27.37 C6.18 21.86, 12.09 15.09, 23.96 0.96 M1.4 33.01 C9.27 23.24, 16.19 15.43, 29.61 0.56 M1.4 33.01 C10.5 22.32, 19.35 14.43, 29.61 0.56 M1.13 39.41 C13.71 26.56, 23.28 14.95, 34.59 0.92 M1.13 39.41 C14.38 25.34, 28.22 9.12, 34.59 0.92 M0.87 45.81 C15.21 28.01, 28.8 16.31, 39.58 1.28 M0.87 45.81 C10.48 36.44, 17.76 26.37, 39.58 1.28 M1.27 51.45 C9.94 43.06, 19.36 30.64, 45.22 0.89 M1.27 51.45 C12.6 38.76, 25.11 25.62, 45.22 0.89 M1.01 57.85 C15.7 40.67, 27.26 28.4, 50.21 1.25 M1.01 57.85 C11.96 46.4, 23.73 33.84, 50.21 1.25 M1.4 63.49 C17.63 46.67, 34.6 27.62, 55.2 1.61 M1.4 63.49 C19.01 43.21, 35.94 22.51, 55.2 1.61 M1.14 69.89 C23.49 43.88, 43.24 20.54, 60.84 1.21 M1.14 69.89 C13.51 54.82, 28.41 39.61, 60.84 1.21 M0.88 76.29 C16.6 59.08, 33.08 40.84, 65.17 2.33 M0.88 76.29 C14.08 60.84, 29.72 44.36, 65.17 2.33 M1.27 81.93 C19.73 61.2, 38.75 41.27, 68.19 4.95 M1.27 81.93 C15.65 63.14, 31.6 46.06, 68.19 4.95 M1.01 88.33 C25.39 59.43, 48.6 31.18, 71.21 7.58 M1.01 88.33 C16.07 71.45, 30.95 52.86, 71.21 7.58 M1.41 93.97 C18.93 75.86, 33.13 58.69, 72.92 11.71 M1.41 93.97 C23.16 69.89, 44.67 45.14, 72.92 11.71 M1.14 100.37 C15.3 80.88, 30.72 64.87, 75.28 15.09 M1.14 100.37 C29.59 67.17, 59.11 34.68, 75.28 15.09 M0.88 106.77 C26.8 76.88, 55.55 43.88, 75.02 21.49 M0.88 106.77 C27.33 77.35, 53.97 47.11, 75.02 21.49 M1.28 112.41 C18 92.46, 34.61 74.27, 75.41 27.13 M1.28 112.41 C18.61 95.12, 34.81 76.36, 75.41 27.13 M1.02 118.81 C19.69 96.79, 38.82 72.44, 75.15 33.53 M1.02 118.81 C26.37 90.94, 49.48 62.74, 75.15 33.53 M1.41 124.45 C25.04 96.61, 51.69 65.76, 74.89 39.92 M1.41 124.45 C26.8 94.62, 52.56 63.35, 74.89 39.92 M1.15 130.85 C27.81 101.39, 52.15 70.02, 75.28 45.57 M1.15 130.85 C20.89 109.09, 40.36 85.72, 75.28 45.57 M0.89 137.25 C27.69 108.54, 48.3 81.32, 75.02 51.97 M0.89 137.25 C25.02 109.59, 48.72 81.83, 75.02 51.97 M1.28 142.89 C19.26 121.26, 40.91 97.02, 75.42 57.61 M1.28 142.89 C16.76 124.2, 34.02 104.7, 75.42 57.61 M1.02 149.29 C17.56 129.85, 38.49 106.57, 75.15 64.01 M1.02 149.29 C27.77 116.5, 55.35 84.24, 75.15 64.01 M1.41 154.93 C19 136.08, 34.5 117.44, 74.89 70.4 M1.41 154.93 C27.42 125.34, 54.51 94.87, 74.89 70.4 M1.15 161.33 C30.53 127.16, 58.82 91.34, 75.29 76.05 M1.15 161.33 C17.88 142.2, 36.82 121.37, 75.29 76.05 M0.89 167.73 C27.38 137.41, 53.69 108.53, 75.03 82.44 M0.89 167.73 C18.05 148.69, 33.93 130.68, 75.03 82.44 M1.29 173.37 C18.75 156.51, 33.7 137.15, 75.42 88.09 M1.29 173.37 C27.67 142.76, 54.23 111.62, 75.42 88.09 M1.03 179.77 C19.04 156.7, 41.76 132.13, 75.16 94.49 M1.03 179.77 C20.94 157.51, 40.6 134.66, 75.16 94.49 M1.42 185.41 C25.72 159.22, 46.14 133.98, 74.9 100.88 M1.42 185.41 C24.97 159.36, 47.39 133.84, 74.9 100.88 M1.16 191.81 C27.68 160.06, 56.37 129.86, 75.29 106.53 M1.16 191.81 C28.2 160.62, 57.03 127.08, 75.29 106.53 M0.9 198.21 C20.62 173.45, 42.61 150.74, 75.03 112.92 M0.9 198.21 C25.13 169.15, 49.92 140.1, 75.03 112.92 M1.29 203.85 C22.48 178.78, 48.81 149.42, 75.43 118.57 M1.29 203.85 C23.37 177.92, 47.31 150.19, 75.43 118.57 M1.03 210.25 C22.78 188.14, 41.46 166.69, 75.16 124.97 M1.03 210.25 C30.14 177.07, 58.71 143.56, 75.16 124.97 M1.42 215.89 C22.24 189.22, 43.87 166.45, 75.56 130.61 M1.42 215.89 C20.99 193.44, 40.06 172.33, 75.56 130.61 M1.16 222.29 C30.6 187.78, 60.07 153.46, 75.3 137.01 M1.16 222.29 C26.91 193.35, 52.57 162.1, 75.3 137.01 M0.9 228.69 C18.83 207.12, 39.38 182.56, 75.04 143.4 M0.9 228.69 C22.21 203.92, 44.94 177.23, 75.04 143.4 M1.3 234.33 C31.31 200.85, 57.27 170.29, 75.43 149.05 M1.3 234.33 C31.45 200.72, 59.57 167.16, 75.43 149.05 M1.69 239.97 C19.17 219.67, 34.26 200.01, 75.17 155.44 M1.69 239.97 C24.28 214.14, 48.49 188, 75.17 155.44 M2.74 244.86 C21.91 224.76, 38.06 201.43, 75.56 161.09 M2.74 244.86 C31.23 212.37, 58.06 180.6, 75.56 161.09 M5.1 248.24 C20.22 232, 32.14 216.71, 75.3 167.49 M5.1 248.24 C24.48 225, 44.3 201.85, 75.3 167.49 M8.12 250.86 C27.52 228.02, 48.16 207.29, 75.04 173.88 M8.12 250.86 C28 227.82, 48.06 204.62, 75.04 173.88 M11.14 253.49 C25.48 238.31, 37.45 220.52, 75.44 179.53 M11.14 253.49 C25.93 236.37, 40.65 219.78, 75.44 179.53 M16.13 253.85 C30.59 234.92, 46.46 217.22, 75.17 185.92 M16.13 253.85 C29.81 236.94, 44.8 220.88, 75.17 185.92 M20.46 254.96 C37.47 235.61, 54.95 217.45, 75.57 191.57 M20.46 254.96 C31.63 240.74, 45.61 226.62, 75.57 191.57 M25.45 255.32 C43.63 232.63, 61.62 211.72, 75.31 197.96 M25.45 255.32 C45.44 233.74, 64.25 211.36, 75.31 197.96 M31.09 254.93 C47.51 234.39, 63.83 214.35, 75.05 204.36 M31.09 254.93 C48.53 235, 65.35 215.91, 75.05 204.36 M36.08 255.29 C50.28 238.53, 63.36 223.61, 75.44 210.01 M36.08 255.29 C45.73 244.65, 55.12 232.73, 75.44 210.01 M41.72 254.89 C52.07 244.31, 61.47 231.72, 75.18 216.4 M41.72 254.89 C52.19 241.16, 63.17 228.96, 75.18 216.4 M46.71 255.25 C55.89 243.64, 64.18 234.7, 75.57 222.05 M46.71 255.25 C56.83 242.86, 69.65 230.58, 75.57 222.05 M52.35 254.86 C57.72 248.5, 63.02 242.18, 75.31 228.44 M52.35 254.86 C58.64 246.48, 65.89 240.86, 75.31 228.44 M57.34 255.22 C61.87 249.76, 69.37 242.08, 74.39 235.6 M57.34 255.22 C63.78 247.51, 68.38 241.67, 74.39 235.6 M62.32 255.58 C63.58 252.07, 66.57 250.46, 72.82 243.5 M62.32 255.58 C65.24 251.61, 68.46 247.06, 72.82 243.5" stroke="#a5d8ff" stroke-width="0.5" fill="none"></path><path d="M18.52 0 M18.52 0 C30.39 -1.1, 46.28 -0.28, 55.56 0 M18.52 0 C30.66 0.21, 42.35 -0.17, 55.56 0 M55.56 0 C68.42 1.19, 72.81 4.39, 74.08 18.52 M55.56 0 C68.93 1.71, 72.46 3.92, 74.08 18.52 M74.08 18.52 C74.35 68.32, 73.96 119.89, 74.08 235.02 M74.08 18.52 C74.7 76.72, 76.31 134.89, 74.08 235.02 M74.08 235.02 C73.62 248.69, 66.77 255.03, 55.56 253.54 M74.08 235.02 C73.72 249, 66.7 251.29, 55.56 253.54 M55.56 253.54 C39.31 252.31, 27.1 255.2, 18.52 253.54 M55.56 253.54 C45.3 253.6, 36.21 252.79, 18.52 253.54 M18.52 253.54 C6.86 254.4, -0.58 249.22, 0 235.02 M18.52 253.54 C6.65 252.77, -0.41 249, 0 235.02 M0 235.02 C0.38 163.77, 0.56 97, 0 18.52 M0 235.02 C0.4 158.76, -0.92 81.52, 0 18.52 M0 18.52 C-0.35 5.49, 4.26 0.29, 18.52 0 M0 18.52 C-0.8 4.02, 8.47 -0.62, 18.52 0" stroke="#1e1e1e" stroke-width="1" fill="none"></path></g><g transform="translate(637.0911782004617 357.08132102272725) rotate(0 17.579986572265625 12.5)"><text x="17.579986572265625" y="0" font-family="Virgil, Segoe UI Emoji" font-size="20px" fill="#1e1e1e" text-anchor="middle" style="white-space: pre;" direction="ltr" dominant-baseline="text-before-edge">Par</text></g><g transform="translate(81.12318004261363 174.53870738636357) rotate(0 327.48974609375 12.5)"><text x="327.48974609375" y="0" font-family="Virgil, Segoe UI Emoji" font-size="20px" fill="#1e1e1e" text-anchor="middle" style="white-space: pre;" direction="ltr" dominant-baseline="text-before-edge">Show  all  European coutries  Asian countries  American countries</text></g><g transform="translate(187.54110995205963 212.39026988636363) rotate(0 182.28985595703125 12.5)"><text x="182.28985595703125" y="0" font-family="Virgil, Segoe UI Emoji" font-size="20px" fill="#1e1e1e" text-anchor="middle" style="white-space: pre;" direction="ltr" dominant-baseline="text-before-edge">Sort by  life expectancy  wage ratio</text></g><g stroke-linecap="round" transform="translate(140.88565340909093 170.3767755681818) rotate(0 18.611505681818187 13.668323863636374)"><path d="M6.83 0 M6.83 0 C13.22 -0.47, 17.49 -0.23, 30.39 0 M6.83 0 C12.53 -0.74, 18.76 0.54, 30.39 0 M30.39 0 C36.04 -0.19, 37.37 3.86, 37.22 6.83 M30.39 0 C33.97 -1.85, 38.83 4.29, 37.22 6.83 M37.22 6.83 C37.11 10.16, 36.52 13.25, 37.22 20.5 M37.22 6.83 C37.17 10.04, 37.48 13.58, 37.22 20.5 M37.22 20.5 C36.64 23.3, 34.1 27.4, 30.39 27.34 M37.22 20.5 C36.32 23.15, 32.98 28.96, 30.39 27.34 M30.39 27.34 C24.6 28.88, 17.89 29.05, 6.83 27.34 M30.39 27.34 C26.36 26.62, 19.98 27.34, 6.83 27.34 M6.83 27.34 C0.41 28.94, -0.79 24.74, 0 20.5 M6.83 27.34 C3.29 28.7, 1.05 23.41, 0 20.5 M0 20.5 C1.25 18.52, -0.44 13.09, 0 6.83 M0 20.5 C-0.26 15.73, 0.09 10.43, 0 6.83 M0 6.83 C-1.35 0.93, 3.56 -1.84, 6.83 0 M0 6.83 C-0.91 2.27, 1.1 -2.24, 6.83 0" stroke="#1e1e1e" stroke-width="1" fill="none"></path></g><g stroke-linecap="round" transform="translate(188.05184659090912 169.95419034090907) rotate(0 90.76526988636363 15.795454545454561)"><path d="M7.9 0 M7.9 0 C47.07 -0.04, 83.16 1.56, 173.63 0 M7.9 0 C61.64 0.66, 114.19 -0.47, 173.63 0 M173.63 0 C179.52 -0.96, 182.45 1.55, 181.53 7.9 M173.63 0 C178.1 2.24, 182.42 4.3, 181.53 7.9 M181.53 7.9 C181.47 12.94, 182.82 17.31, 181.53 23.69 M181.53 7.9 C182.16 12.58, 181.87 16.45, 181.53 23.69 M181.53 23.69 C181.07 28.64, 178.42 29.6, 173.63 31.59 M181.53 23.69 C181.38 30.72, 178.88 33.15, 173.63 31.59 M173.63 31.59 C116.28 32.37, 61.89 31.81, 7.9 31.59 M173.63 31.59 C118.11 31.31, 62.4 31.61, 7.9 31.59 M7.9 31.59 C2.36 33.1, -1.98 29.02, 0 23.69 M7.9 31.59 C2.46 29.69, -1.49 29.66, 0 23.69 M0 23.69 C0.22 20.17, -0.25 16, 0 7.9 M0 23.69 C0.08 18.49, -0.47 12.77, 0 7.9 M0 7.9 C-0.76 1.78, 3.66 1.6, 7.9 0 M0 7.9 C1.11 4.12, 2.99 1.04, 7.9 0" stroke="#1e1e1e" stroke-width="1" fill="none"></path></g><g stroke-linecap="round" transform="translate(379.8238636363636 169.9861505681818) rotate(0 81.18607954545456 15.349786931818187)"><path d="M7.67 0 M7.67 0 C56.3 -0.99, 110.55 -0.5, 154.7 0 M7.67 0 C48.52 -0.32, 91.4 -0.48, 154.7 0 M154.7 0 C158.06 -1.3, 160.5 2.84, 162.37 7.67 M154.7 0 C158.71 1.88, 160.69 3.06, 162.37 7.67 M162.37 7.67 C163.28 12.23, 162.3 13.8, 162.37 23.02 M162.37 7.67 C161.9 12.01, 162.37 15.25, 162.37 23.02 M162.37 23.02 C162.97 26.52, 161.73 32.51, 154.7 30.7 M162.37 23.02 C163.3 26.32, 160.32 30.14, 154.7 30.7 M154.7 30.7 C100.98 32.32, 50.4 30.04, 7.67 30.7 M154.7 30.7 C124.41 30.85, 92.63 29.69, 7.67 30.7 M7.67 30.7 C1.07 30.25, -1.77 27.61, 0 23.02 M7.67 30.7 C0.29 28.89, 0.4 26.62, 0 23.02 M0 23.02 C0.96 17.18, -0.7 15.51, 0 7.67 M0 23.02 C0.07 19.53, -0.54 15.78, 0 7.67 M0 7.67 C0.22 3.6, 2.11 -0.68, 7.67 0 M0 7.67 C-0.03 1.86, 1.28 2.05, 7.67 0" stroke="#1e1e1e" stroke-width="1" fill="none"></path></g><g stroke-linecap="round" transform="translate(550.8181818181818 171.68714488636363) rotate(0 94.54545454545456 15.50071022727272)"><path d="M7.75 0 M7.75 0 C57.58 -0.68, 110.78 -1.36, 181.34 0 M7.75 0 C62.82 0.17, 117.92 0.23, 181.34 0 M181.34 0 C186.1 1.27, 188.91 4.56, 189.09 7.75 M181.34 0 C187.76 -1.72, 190.79 1.96, 189.09 7.75 M189.09 7.75 C188.58 10.62, 190.32 15.62, 189.09 23.25 M189.09 7.75 C188.78 11.99, 189.49 16.92, 189.09 23.25 M189.09 23.25 C188.85 30.16, 184.61 29.85, 181.34 31 M189.09 23.25 C189.62 29.83, 187.74 32.78, 181.34 31 M181.34 31 C122.02 31.58, 61.8 30.8, 7.75 31 M181.34 31 C144.84 29.67, 109.05 28.98, 7.75 31 M7.75 31 C1.51 31.62, 1.91 29.77, 0 23.25 M7.75 31 C2.62 28.82, -0.75 27.14, 0 23.25 M0 23.25 C0.59 17.15, 0.86 10.66, 0 7.75 M0 23.25 C0.52 17.9, -0.36 11.51, 0 7.75 M0 7.75 C0.79 0.59, 3.84 -0.21, 7.75 0 M0 7.75 C-1.55 2.61, 3.25 -0.67, 7.75 0" stroke="#1e1e1e" stroke-width="1" fill="none"></path></g><g stroke-linecap="round" transform="translate(273.8046875 208.24964488636363) rotate(0 78.70383522727275 16.036931818181813)"><path d="M8.02 0 M8.02 0 C37.14 0.4, 68.88 1.91, 149.39 0 M8.02 0 C55.43 1.31, 104.39 0.1, 149.39 0 M149.39 0 C152.91 -0.84, 155.45 2.37, 157.41 8.02 M149.39 0 C156.97 -0.71, 157.09 3.52, 157.41 8.02 M157.41 8.02 C158.26 14.81, 156.41 17.06, 157.41 24.06 M157.41 8.02 C157.09 13.61, 157.25 20.54, 157.41 24.06 M157.41 24.06 C157.63 27.41, 154.94 33.36, 149.39 32.07 M157.41 24.06 C157.38 30.52, 156.32 34.12, 149.39 32.07 M149.39 32.07 C101.83 31.1, 56.63 33.53, 8.02 32.07 M149.39 32.07 C104.97 32.74, 60.35 31.89, 8.02 32.07 M8.02 32.07 C2.95 33.19, 0.35 30.54, 0 24.06 M8.02 32.07 C1.15 31.48, 0.98 27.51, 0 24.06 M0 24.06 C-1.45 18.78, -0.87 14.4, 0 8.02 M0 24.06 C0.36 18.78, -0.47 11.85, 0 8.02 M0 8.02 C-1.99 3.36, 3.95 -1.24, 8.02 0 M0 8.02 C-1.59 2.85, 3.85 2.17, 8.02 0" stroke="#1e1e1e" stroke-width="1" fill="none"></path></g><g stroke-linecap="round" transform="translate(440.56960227272725 208.75035511363637) rotate(0 58.370028409090935 14.632457386363626)"><path d="M7.32 0 M7.32 0 C35.87 1.11, 58.85 -2.76, 109.42 0 M7.32 0 C46.17 -0.23, 85.02 -1.01, 109.42 0 M109.42 0 C115.21 0.05, 116.2 2.15, 116.74 7.32 M109.42 0 C112.9 0.31, 117.18 3.95, 116.74 7.32 M116.74 7.32 C117.54 10.43, 117.06 14.81, 116.74 21.95 M116.74 7.32 C116.48 10.54, 116.41 15.05, 116.74 21.95 M116.74 21.95 C116.22 25.09, 114.94 27.95, 109.42 29.26 M116.74 21.95 C116.95 26.39, 113.33 28.54, 109.42 29.26 M109.42 29.26 C83.37 30.54, 53.8 27.43, 7.32 29.26 M109.42 29.26 C85.12 28.64, 62.36 28.24, 7.32 29.26 M7.32 29.26 C3.19 28.5, 1.75 26.7, 0 21.95 M7.32 29.26 C2.47 27.89, -0.2 27.17, 0 21.95 M0 21.95 C-0.35 19.12, 0.34 13.38, 0 7.32 M0 21.95 C0.8 17.17, -0.61 13.48, 0 7.32 M0 7.32 C0.14 4.07, 3.35 1.75, 7.32 0 M0 7.32 C1.9 0.73, 1.89 -0.56, 7.32 0" stroke="#1e1e1e" stroke-width="1" fill="none"></path></g></svg>